<svg xmlns="http://www.w3.org/2000/svg" width="16.537" height="18.375" viewBox="0 0 16.537 18.375"><defs><style>.a{fill:#333;}</style></defs><path class="a" d="M10.012,11.269H8.175v1.837h1.837Zm3.675,0H11.85v1.837h1.837Zm3.675,0H15.525v1.837h1.837ZM19.2,4.837h-.919V3H16.444V4.837H9.094V3H7.256V4.837H6.337A1.829,1.829,0,0,0,4.509,6.675L4.5,19.537a1.837,1.837,0,0,0,1.837,1.837H19.2a1.843,1.843,0,0,0,1.837-1.837V6.675A1.843,1.843,0,0,0,19.2,4.837Zm0,14.7H6.337V9.431H19.2Z" transform="translate(-4.5 -3)"/></svg>